<svg xmlns="http://www.w3.org/2000/svg" x="0px" y="0px"
width="100" height="100"
viewBox="0,0,256,256"
style="fill:#000000;">
<g fill="none" fill-rule="nonzero" stroke="none" stroke-width="1" stroke-linecap="butt" stroke-linejoin="miter" stroke-miterlimit="10" stroke-dasharray="" stroke-dashoffset="0" font-family="none" font-weight="none" font-size="none" text-anchor="none" style="mix-blend-mode: normal"><g transform="scale(5.33333,5.33333)"><path d="M42,10v28c0,2.2 -1.8,4 -4,4h-28c-2.2,0 -4,-1.8 -4,-4v-28c0,-2.2 1.8,-4 4,-4h28c2.2,0 4,1.8 4,4z" fill="#ffffff"></path><path d="M25,37c-3.925,0 -7,-2.196 -7,-5h2c0,1.626 2.29,3 5,3c3.131,0 5,-1.869 5,-5v-17h2v17c0,4.187 -2.813,7 -7,7z" fill="#000000"></path><path d="M24.5,30c-4.136,0 -7.5,-4.038 -7.5,-9c0,-4.962 3.364,-9 7.5,-9c4.136,0 7.5,4.038 7.5,9c0,4.962 -3.364,9 -7.5,9zM24.5,14c-3.033,0 -5.5,3.14 -5.5,7c0,3.86 2.467,7 5.5,7c3.033,0 5.5,-3.14 5.5,-7c0,-3.86 -2.467,-7 -5.5,-7z" fill="#000000"></path></g></g>
</svg>